HIERARCHY
ROOT Hips
{
	OFFSET 0.000000 0.000000 0.000000
	CHANNELS 6 Xposition Yposition Zposition Zrotation Yrotation Xrotation 
	JOINT LHipJoint
	{
		OFFSET 0.000000 0.000000 0.000000
		CHANNELS 3 Zrotation Yrotation Xrotation
		JOINT LeftUpLeg
		{
			OFFSET 1.363060 -1.794630 0.839290
			CHANNELS 3 Zrotation Yrotation Xrotation
			JOINT LeftLeg
			{
				OFFSET 2.448110 -6.726130 0.000000
				CHANNELS 3 Zrotation Yrotation Xrotation
				JOINT LeftFoot
				{
					OFFSET 2.562200 -7.039590 0.000000
					CHANNELS 3 Zrotation Yrotation Xrotation
					JOINT LeftToeBase
					{
						OFFSET 0.157640 -0.433110 2.322550
						CHANNELS 3 Zrotation Yrotation Xrotation
						End Site
						{
							OFFSET 0.000000 0.000000 0.000000
						}
					}
				}
			}
		}
	}
	JOINT RHipJoint
	{
		OFFSET 0.000000 0.000000 0.000000
		CHANNELS 3 Zrotation Yrotation Xrotation
		JOINT RightUpLeg
		{
			OFFSET -1.305520 -1.794630 0.839290
			CHANNELS 3 Zrotation Yrotation Xrotation
			JOINT RightLeg
			{
				OFFSET -2.542530 -6.985550 0.000000
				CHANNELS 3 Zrotation Yrotation Xrotation
				JOINT RightFoot
				{
					OFFSET -2.568260 -7.056230 0.000000
					CHANNELS 3 Zrotation Yrotation Xrotation
					JOINT RightToeBase
					{
						OFFSET -0.164730 -0.452590 2.363150
						CHANNELS 3 Zrotation Yrotation Xrotation
						End Site
						{
							OFFSET 0.000000 0.000000 0.000000
						}
					}
				}
			}
		}
	}
}
MOTION
Frames: 22
Frame Time: 0.008333
3.423473 17.222219 1.129282 -176.307176 -70.759752 -172.325951 -11.874292 2.439696 -0.501716 -5.019878 27.267289 -15.678077 -3.028738 -0.974927 -1.550906 0.804129 6.185265 0.935823 0.950400 -0.000000 -35.123100 9.111379 -1.407087 4.112161 2.112514 2.365541 -12.814407 3.054272 1.947837 -4.319504 0.794799 3.313778 4.744139 0.055200 -0.000001 -47.216700
3.421572 17.221967 1.124072 -176.580620 -70.692197 -172.092310 -11.870781 2.429437 -0.518263 -5.051077 27.210348 -15.626125 -3.019150 -0.970859 -1.413027 0.823624 6.348553 0.868233 0.965600 0.000000 -35.058100 9.117345 -1.412704 4.107184 2.029704 2.369835 -12.830488 3.040572 1.927567 -4.223888 0.796702 3.402815 4.664065 0.078600 0.000000 -47.243600
3.420297 17.221658 1.118500 -176.842848 -70.655404 -171.888117 -11.865800 2.418375 -0.534823 -5.064539 27.127558 -15.543170 -3.005002 -0.965722 -1.280462 0.843814 6.517857 0.803855 0.981700 0.000000 -34.987400 9.126444 -1.416544 4.088227 1.952938 2.352014 -12.830271 3.024707 1.902919 -4.086203 0.795101 3.482533 4.552515 0.100000 0.000000 -47.266000
3.419497 17.221219 1.112688 -177.088819 -70.657523 -171.706657 -11.859152 2.403845 -0.555093 -5.064130 27.019586 -15.441496 -2.987850 -0.960581 -1.154665 0.863456 6.683559 0.742033 0.997300 0.000000 -34.914900 9.138329 -1.418319 4.054090 1.883571 2.316356 -12.821882 3.006647 1.874521 -3.911183 0.789056 3.545016 4.409850 0.117400 0.000000 -47.284000
3.418751 17.220645 1.106804 -177.309036 -70.711240 -171.546069 -11.850691 2.383594 -0.579651 -5.053370 26.886529 -15.333635 -2.969181 -0.957404 -1.036902 0.881459 6.838280 0.683234 1.011700 0.000000 -34.843000 9.152239 -1.420498 4.008675 1.822809 2.268057 -12.812574 2.986192 1.842781 -3.707124 0.777927 3.581445 4.239888 0.129000 0.000001 -47.296100
3.418056 17.219954 1.100871 -177.518191 -70.818613 -171.398628 -11.841349 2.359550 -0.606699 -5.036105 26.737134 -15.215800 -2.950217 -0.957114 -0.932573 0.896781 6.976176 0.632237 1.024800 0.000000 -34.774699 9.167645 -1.425330 3.957135 1.765954 2.206897 -12.797441 2.963134 1.808033 -3.482468 0.762500 3.594834 4.047908 0.135400 -0.000000 -47.305400
3.417139 17.219177 1.094951 -177.715660 -70.971766 -171.264814 -11.831955 2.334190 -0.630686 -5.016301 26.578225 -15.096844 -2.931841 -0.959915 -0.844104 0.909268 7.094966 0.589423 1.036400 -0.000001 -34.710100 9.182760 -1.434137 3.907378 1.713606 2.139796 -12.780076 2.938565 1.772113 -3.247200 0.743810 3.584140 3.842635 0.136300 -0.000000 -47.310900
3.415684 17.218352 1.089070 -177.901248 -71.156182 -171.141822 -11.823353 2.310040 -0.648866 -4.997884 26.421086 -14.982865 -2.915123 -0.965396 -0.773638 0.918811 7.192873 0.556048 1.046399 -0.000000 -34.653700 9.196452 -1.446998 3.864603 1.665095 2.073097 -12.762197 2.913740 1.737003 -3.012916 0.723503 3.553302 3.633768 0.132100 0.000000 -47.310400
3.413499 17.217502 1.083256 -178.074523 -71.355786 -171.026950 -11.816011 2.288211 -0.661199 -4.983866 26.277882 -14.878681 -2.901138 -0.973309 -0.724045 0.925202 7.268009 0.533052 1.054700 -0.000001 -34.605200 9.208169 -1.463460 3.831561 1.620535 2.011210 -12.746361 2.889926 1.704321 -2.791562 0.703024 3.509689 3.431097 0.124600 0.000000 -47.305501
3.410468 17.216665 1.077497 -178.236349 -71.555302 -170.917198 -11.810288 2.269256 -0.668690 -4.975805 26.157535 -14.783620 -2.890299 -0.983709 -0.701357 0.928692 7.323214 0.523174 1.062100 -0.000000 -34.566200 9.217844 -1.483068 3.809366 1.579454 1.956789 -12.733356 2.868129 1.675102 -2.594081 0.684012 3.463112 3.244160 0.116101 0.000000 -47.298300
3.406263 17.215851 1.071792 -178.375680 -71.742250 -170.815407 -11.806594 2.253317 -0.670903 -4.975929 26.072613 -14.711245 -2.884090 -0.996503 -0.700633 0.928806 7.353789 0.523782 1.067600 -0.000000 -34.539200 9.224329 -1.506659 3.802093 1.545485 1.915771 -12.729048 2.849875 1.651274 -2.433426 0.667632 3.417907 3.081942 0.107300 -0.000000 -47.284600
3.400887 17.215080 1.066135 -178.492292 -71.906432 -170.722577 -11.805249 2.240291 -0.669521 -4.983102 26.028935 -14.656017 -2.882421 -1.011908 -0.727182 0.925813 7.363279 0.537287 1.071900 0.000000 -34.524700 9.227813 -1.534140 3.809328 1.518579 1.887620 -12.731834 2.835805 1.633114 -2.316658 0.654796 3.384171 2.950324 0.101000 0.000000 -47.267200
3.394444 17.214352 1.060555 -178.580861 -72.040485 -170.645441 -11.806546 2.229764 -0.665884 -4.995371 26.034199 -14.619024 -2.885677 -1.029629 -0.778170 0.919439 7.349537 0.562641 1.074700 0.000000 -34.523400 9.227948 -1.565712 3.831272 1.501011 1.873152 -12.740487 2.826569 1.620976 -2.248545 0.645989 3.367290 2.853172 0.098400 -0.000000 -47.245200
3.386759 17.213701 1.054910 -178.646145 -72.141337 -170.576771 -11.810400 2.221781 -0.658864 -5.012706 26.076109 -14.590263 -2.892021 -1.050509 -0.865005 0.911545 7.328911 0.604080 1.078800 -0.000000 -34.532800 9.225252 -1.601080 3.866582 1.490848 1.870292 -12.755309 2.822057 1.614558 -2.230156 0.641601 3.372254 2.791698 0.100800 0.000000 -47.221400
3.378196 17.213052 1.049401 -178.675907 -72.207658 -170.534202 -11.817284 2.215525 -0.651924 -5.029328 26.169590 -14.573889 -2.902815 -1.072947 -0.971523 0.900422 7.285705 0.654591 1.080800 -0.000000 -34.556000 9.219034 -1.640006 3.913962 1.492174 1.880663 -12.770942 2.822470 1.613637 -2.257979 0.641230 3.397506 2.763141 0.107801 -0.000000 -47.193000
3.368681 17.212489 1.043808 -178.683754 -72.243165 -170.501456 -11.826311 2.211008 -0.640685 -5.047847 26.281813 -14.558948 -2.914400 -1.098193 -1.113764 0.889579 7.249109 0.720163 1.085900 0.000001 -34.588000 9.210198 -1.681405 3.971326 1.500920 1.901713 -12.791423 2.826874 1.617478 -2.327868 0.644441 3.441179 2.764803 0.118900 0.000000 -47.160900
3.358621 17.211900 1.038341 -178.658278 -72.251638 -170.498056 -11.838071 2.207291 -0.631784 -5.060042 26.435374 -14.548477 -2.929113 -1.123485 -1.266447 0.875999 7.191819 0.790919 1.088400 0.000000 -34.631001 9.198323 -1.724247 4.035014 1.520420 1.935054 -12.807259 2.834614 1.624812 -2.426157 0.650436 3.496047 2.787233 0.132400 -0.000001 -47.123099
3.347915 17.211388 1.032771 -178.617571 -72.242164 -170.498834 -11.851014 2.204593 -0.617115 -5.071128 26.577839 -14.531416 -2.941563 -1.150803 -1.451349 0.864957 7.157142 0.873961 1.096100 0.000000 -34.678800 9.184631 -1.767108 4.103236 1.544622 1.978204 -12.827224 2.844324 1.634978 -2.546955 0.658041 3.555432 2.825193 0.146500 0.000000 -47.079100
3.337184 17.210809 1.027300 -178.554153 -72.220981 -170.523798 -11.865486 2.201691 -0.605770 -5.073254 26.740062 -14.514360 -2.955260 -1.176452 -1.634259 0.852183 7.106606 0.956710 1.101000 0.000001 -34.733300 9.168956 -1.808387 4.171484 1.575949 2.033699 -12.840694 2.854770 1.646098 -2.670833 0.665780 3.608170 2.865597 0.158699 0.000000 -47.028700
3.326083 17.210338 1.021657 -178.486042 -72.199348 -170.542873 -11.879635 2.199184 -0.587227 -5.073309 26.859912 -14.486708 -2.963980 -1.203038 -1.841232 0.843904 7.091717 1.047534 1.112600 0.000000 -34.787600 9.152762 -1.846880 4.238663 1.607639 2.097895 -12.859608 2.864670 1.657832 -2.793094 0.672486 3.647311 2.902979 0.167300 0.000001 -46.970400
3.315312 17.209820 1.016055 -178.407907 -72.183108 -170.574867 -11.893621 2.195700 -0.572047 -5.065374 26.978134 -14.461356 -2.972646 -1.226501 -2.031292 0.834748 7.064352 1.131304 1.121000 0.000000 -34.843700 9.135991 -1.881218 4.301019 1.641739 2.173228 -12.874413 2.872869 1.668411 -2.895019 0.676358 3.662567 2.924784 0.170000 0.000000 -46.905399
3.304389 17.209394 1.010199 -178.334432 -72.181972 -170.590983 -11.905628 2.191984 -0.549292 -5.056385 27.034024 -14.428444 -2.975156 -1.249733 -2.231728 0.830905 7.076437 1.216982 1.136100 -0.000000 -34.895400 9.120107 -1.910713 4.358249 1.672534 2.254896 -12.898138 2.878553 1.677845 -2.975256 0.676677 3.650262 2.927831 0.166001 0.000000 -46.832900
